<?xml version="1.0" encoding="UTF-8" ?>
<!DOCTYPE svg PUBLIC "-//W3C//DTD SVG 1.1//EN" "http://www.w3.org/Graphics/SVG/1.1/DTD/svg11.dtd">
<svg width="325pt" height="180pt" viewBox="0 0 325 180" version="1.1" xmlns="http://www.w3.org/2000/svg">
<g id="#313131ff">
<path fill="#313131" opacity="1.00" d=" M 0.00 0.00 L 325.00 0.00 L 325.00 180.00 L 264.00 180.00 C 264.02 144.01 263.95 108.01 264.04 72.02 C 263.97 70.05 264.03 67.94 262.92 66.22 C 259.80 61.07 255.02 57.17 250.05 53.89 C 239.95 47.39 228.51 43.33 216.97 40.23 C 195.80 34.78 173.84 32.71 152.01 33.04 C 133.25 33.39 114.45 35.47 96.26 40.17 C 83.73 43.58 71.19 47.96 60.53 55.56 C 56.18 58.75 51.88 62.45 49.50 67.41 C 48.60 70.51 49.06 73.82 48.97 77.01 C 49.04 111.34 48.98 145.67 49.00 180.00 L 0.00 180.00 L 0.00 0.00 Z" />
<path fill="#313131" opacity="1.00" d=" M 89.22 65.23 C 97.30 60.66 107.40 58.85 116.10 62.75 C 121.60 65.23 126.77 68.91 129.80 74.25 C 134.69 82.11 135.23 92.39 131.77 100.91 C 130.25 104.74 127.49 107.87 124.96 111.05 C 123.60 112.02 122.25 113.00 120.92 114.00 C 114.98 117.50 108.11 118.23 101.36 118.59 C 100.59 119.58 99.83 120.58 99.05 121.57 C 99.58 116.63 94.18 115.39 90.45 115.11 C 85.40 124.25 82.90 134.74 83.28 145.17 C 83.40 150.91 85.89 156.19 86.67 161.82 C 84.97 159.61 83.33 157.36 81.70 155.11 C 81.44 155.53 80.92 156.38 80.66 156.80 C 82.27 164.07 85.15 173.82 94.03 174.52 C 93.98 175.07 93.88 176.19 93.83 176.75 C 87.60 175.93 83.82 170.43 79.84 166.18 C 75.98 162.27 74.60 156.46 75.60 151.13 C 76.47 142.36 80.20 134.27 83.34 126.13 C 84.75 121.48 86.98 116.94 86.62 111.95 C 80.87 111.29 76.15 107.61 72.08 103.78 C 64.52 94.10 65.65 78.40 75.44 70.63 C 79.21 67.21 84.22 65.62 89.22 65.23 M 99.91 71.48 C 93.94 73.66 88.40 78.57 87.41 85.12 C 84.92 93.50 89.96 103.04 97.84 106.46 C 107.34 111.44 120.75 105.29 123.00 94.73 C 122.39 94.79 121.15 94.90 120.53 94.96 C 119.84 99.52 115.84 102.55 111.93 104.39 C 104.01 107.75 93.96 103.52 90.60 95.64 C 88.81 91.31 88.73 86.14 90.81 81.89 C 94.01 74.30 103.78 70.73 111.30 73.74 C 114.36 74.78 116.78 76.98 119.12 79.12 C 121.49 83.27 122.32 88.01 121.46 92.73 C 122.05 93.42 122.66 94.09 123.29 94.76 C 126.27 85.47 120.37 74.16 110.84 71.65 C 107.28 70.81 103.42 70.10 99.91 71.48 M 98.27 89.05 C 97.62 94.39 104.98 99.00 109.10 95.03 C 106.69 94.40 103.81 94.75 101.77 93.09 C 99.61 91.49 100.11 88.32 100.92 86.13 C 102.59 83.69 105.76 84.51 108.25 84.33 C 110.77 86.89 110.94 90.31 109.53 93.52 C 110.03 93.60 111.05 93.76 111.55 93.84 C 111.95 91.54 112.35 89.25 112.70 86.95 C 110.78 85.08 109.00 82.34 106.01 82.34 C 102.14 81.69 98.23 85.18 98.27 89.05 Z" />
<path fill="#313131" opacity="1.00" d=" M 156.95 77.91 C 167.20 73.99 179.96 72.75 188.84 80.44 C 188.58 81.31 188.33 82.18 188.07 83.04 C 187.87 82.53 187.46 81.52 187.26 81.01 C 181.36 77.67 173.61 75.71 167.42 79.39 C 167.39 79.88 167.35 80.86 167.33 81.35 C 173.39 82.60 178.65 86.36 182.97 90.66 C 186.80 96.29 186.24 104.11 191.21 109.09 C 191.43 107.52 191.64 105.94 191.81 104.36 C 192.18 104.37 192.92 104.39 193.28 104.40 C 194.31 109.99 197.59 114.57 201.00 118.95 C 197.16 117.56 192.37 116.44 190.45 112.42 C 188.72 109.29 185.49 107.53 182.86 105.27 C 183.74 101.48 184.54 96.86 181.12 94.04 C 178.11 95.86 177.20 98.96 177.50 102.32 C 177.11 102.40 176.31 102.56 175.92 102.64 C 175.62 100.74 175.36 98.83 175.12 96.93 C 174.61 93.87 173.74 90.86 172.04 88.23 C 169.04 87.71 166.05 86.98 162.99 86.98 C 159.83 87.20 157.16 89.12 154.67 90.90 C 154.43 88.62 154.15 86.34 153.78 84.08 C 154.83 82.02 155.89 79.96 156.95 77.91 Z" />
<path fill="#313131" opacity="1.00" d=" M 155.98 96.24 C 158.57 95.67 161.20 94.74 163.88 95.12 C 165.36 96.00 166.33 97.53 166.83 99.15 C 164.95 101.23 162.43 102.51 160.06 103.91 C 161.40 105.81 164.20 107.26 163.82 109.92 C 163.69 113.93 162.35 117.76 161.13 121.54 C 163.96 119.88 166.88 118.30 170.13 117.62 C 171.94 115.37 173.70 113.07 175.45 110.77 C 175.37 114.15 175.60 117.54 175.30 120.91 C 174.78 123.82 173.35 126.45 172.10 129.08 C 177.24 128.76 182.39 128.42 187.53 127.99 C 187.87 126.27 188.21 124.55 188.54 122.84 C 192.16 125.99 195.71 129.34 200.12 131.37 C 200.51 131.59 201.29 132.03 201.68 132.25 C 202.68 132.66 203.67 133.07 204.67 133.50 C 205.78 131.46 206.92 129.44 208.10 127.44 C 207.17 125.53 206.20 123.63 205.26 121.71 C 208.13 123.91 210.74 126.61 214.15 127.98 C 217.97 128.66 221.88 128.74 225.70 129.47 C 224.55 129.90 222.26 130.75 221.12 131.17 C 224.36 135.53 230.11 138.12 230.83 144.03 C 226.37 139.90 222.30 134.77 216.19 133.08 C 213.19 131.80 209.90 133.75 208.42 136.39 C 208.40 140.69 209.43 144.97 210.91 149.00 C 211.78 152.11 215.72 152.38 217.07 155.15 C 220.26 160.58 222.42 167.12 227.88 170.78 C 229.29 169.73 230.57 168.52 231.88 167.34 C 231.28 169.11 230.68 170.87 230.11 172.65 C 228.39 172.69 226.65 173.03 224.96 172.72 C 221.82 171.66 219.42 168.92 216.04 168.50 C 213.24 168.10 210.61 167.09 207.93 166.25 C 204.30 169.98 205.23 176.14 201.57 180.00 L 185.71 180.00 C 188.49 177.93 190.55 175.12 192.40 172.22 C 189.98 172.94 187.61 173.95 185.09 174.25 C 181.50 174.27 178.75 171.67 175.62 170.34 C 172.65 168.89 168.54 169.47 166.79 166.13 C 161.16 158.37 150.81 154.54 141.50 156.75 C 139.60 157.89 138.59 160.01 137.27 161.72 C 138.43 165.82 140.16 170.17 144.61 171.57 C 146.14 170.67 147.68 169.79 149.23 168.92 C 149.60 170.90 150.00 172.89 150.41 174.87 C 147.99 174.08 145.58 173.07 143.00 172.97 C 139.45 173.53 138.03 177.14 136.71 180.00 L 135.80 180.00 C 135.53 178.74 135.28 177.49 135.05 176.23 C 130.65 177.19 126.36 178.58 122.09 180.00 L 121.89 180.00 C 113.35 178.46 104.98 175.18 96.19 175.59 C 95.59 174.99 94.99 174.39 94.40 173.80 C 105.10 172.28 116.62 175.84 126.66 170.69 C 131.52 168.42 133.79 163.20 134.49 158.16 C 133.52 157.43 132.52 156.77 131.61 155.96 C 133.44 152.78 136.33 149.93 136.56 146.07 C 137.19 142.39 134.84 139.06 134.93 135.47 C 137.11 131.32 141.69 128.95 146.04 127.68 C 151.88 125.75 157.96 127.66 163.77 128.72 C 164.13 127.24 164.49 125.75 164.85 124.27 C 163.34 124.55 161.84 124.85 160.34 125.13 C 159.86 122.76 159.39 120.39 158.93 118.01 C 159.98 115.31 163.14 112.11 160.39 109.45 C 157.60 107.94 153.97 107.78 152.35 104.61 C 153.92 101.98 155.23 99.21 155.98 96.24 M 144.26 137.32 C 141.48 140.53 136.48 144.42 138.72 149.12 C 139.57 151.61 142.29 153.23 144.89 152.64 C 151.75 151.40 156.92 145.92 160.69 140.40 C 162.94 137.08 166.22 134.73 169.05 131.96 C 168.20 130.55 166.40 130.66 164.99 130.44 C 157.44 129.31 150.20 133.08 144.26 137.32 M 180.56 130.29 C 175.95 131.00 171.04 132.12 167.86 135.82 C 164.33 139.97 159.50 144.10 159.56 150.03 C 159.37 153.80 161.83 157.20 165.02 158.98 C 171.27 162.71 178.49 164.85 185.77 165.11 C 186.87 164.47 187.94 163.79 189.01 163.12 C 190.46 161.53 191.94 159.97 193.36 158.36 C 194.72 158.52 196.09 158.67 197.46 158.83 C 200.13 155.36 200.10 150.86 200.74 146.74 C 202.74 147.32 206.01 148.59 207.05 145.96 C 208.78 140.29 204.71 134.44 199.55 132.34 C 193.55 129.86 186.92 130.06 180.56 130.29 Z" />
<path fill="#313131" opacity="1.00" d=" M 98.70 122.95 C 99.52 122.99 100.34 123.03 101.17 123.08 C 101.52 129.46 107.52 133.32 109.58 139.09 C 112.17 135.17 115.66 131.08 120.68 130.65 C 125.05 130.34 130.47 129.99 133.65 133.59 C 129.48 133.32 125.05 131.91 121.11 134.01 C 117.29 135.14 114.93 138.46 112.57 141.42 C 112.67 141.73 112.88 142.34 112.98 142.64 C 113.83 142.02 115.52 140.78 116.37 140.16 C 114.55 143.89 112.91 147.82 113.03 152.06 C 114.44 153.86 115.83 155.68 117.23 157.50 C 115.14 157.37 113.05 157.26 110.96 157.18 C 109.85 158.56 108.97 160.21 107.53 161.28 C 105.33 161.80 103.05 161.61 100.81 161.52 C 102.82 158.07 106.43 155.75 107.90 151.97 C 109.00 147.60 107.92 142.96 106.14 138.92 C 104.71 135.52 101.64 133.19 100.04 129.89 C 99.33 127.64 99.24 125.24 98.70 122.95 Z" />
<path fill="#313131" opacity="1.00" d=" M 225.47 130.28 C 228.11 130.00 230.58 130.83 232.36 132.82 C 229.99 132.17 227.68 131.34 225.47 130.28 Z" />
<path fill="#313131" opacity="1.00" d=" M 244.47 146.17 C 248.15 153.54 243.59 161.41 244.25 169.03 C 244.90 172.43 246.97 175.36 247.86 178.70 C 245.74 176.95 243.97 174.85 242.11 172.85 C 240.79 171.00 238.23 171.49 236.31 170.97 C 237.93 166.86 239.93 162.93 241.83 158.96 C 243.78 154.97 243.69 150.45 244.47 146.17 Z" />
<path fill="#313131" opacity="1.00" d=" M 159.51 177.00 C 161.42 176.23 163.34 175.44 165.26 174.69 C 164.09 176.48 162.93 178.26 161.68 180.00 L 161.63 180.00 C 160.92 179.00 160.21 178.00 159.51 177.00 Z" />
</g>
<g id="#b3fe01ff">
<path fill="#b3fe01" opacity="1.00" d=" M 96.26 40.17 C 114.45 35.47 133.25 33.39 152.01 33.04 C 173.84 32.71 195.80 34.78 216.97 40.23 C 228.51 43.33 239.95 47.39 250.05 53.89 C 255.02 57.17 259.80 61.07 262.92 66.22 C 264.03 67.94 263.97 70.05 264.04 72.02 C 263.95 108.01 264.02 144.01 264.00 180.00 L 201.57 180.00 C 205.23 176.14 204.30 169.98 207.93 166.25 C 210.61 167.09 213.24 168.10 216.04 168.50 C 219.42 168.92 221.82 171.66 224.96 172.72 C 226.65 173.03 228.39 172.69 230.11 172.65 C 230.68 170.87 231.28 169.11 231.88 167.34 C 230.57 168.52 229.29 169.73 227.88 170.78 C 222.42 167.12 220.26 160.58 217.07 155.15 C 215.72 152.38 211.78 152.11 210.91 149.00 C 209.43 144.97 208.40 140.69 208.42 136.39 C 209.90 133.75 213.19 131.80 216.19 133.08 C 222.30 134.77 226.37 139.90 230.83 144.03 C 230.11 138.12 224.36 135.53 221.12 131.17 C 222.26 130.75 224.55 129.90 225.70 129.47 C 221.88 128.74 217.97 128.66 214.15 127.98 C 210.74 126.61 208.13 123.91 205.26 121.71 C 206.20 123.63 207.17 125.53 208.10 127.44 C 206.92 129.44 205.78 131.46 204.67 133.50 C 203.67 133.07 202.68 132.66 201.68 132.25 C 201.29 132.03 200.51 131.59 200.12 131.37 C 195.71 129.34 192.16 125.99 188.54 122.84 C 188.21 124.55 187.87 126.27 187.53 127.99 C 182.39 128.42 177.24 128.76 172.10 129.08 C 173.35 126.45 174.78 123.82 175.30 120.91 C 175.60 117.54 175.37 114.15 175.45 110.77 C 173.70 113.07 171.94 115.37 170.13 117.62 C 166.88 118.30 163.96 119.88 161.13 121.54 C 162.35 117.76 163.69 113.93 163.82 109.92 C 164.20 107.26 161.40 105.81 160.06 103.91 C 162.43 102.51 164.95 101.23 166.83 99.15 C 166.33 97.53 165.36 96.00 163.88 95.12 C 161.20 94.74 158.57 95.67 155.98 96.24 C 155.23 99.21 153.92 101.98 152.35 104.61 C 153.97 107.78 157.60 107.94 160.39 109.45 C 163.14 112.11 159.98 115.31 158.93 118.01 C 159.39 120.39 159.86 122.76 160.34 125.13 C 161.84 124.85 163.34 124.55 164.85 124.27 C 164.49 125.75 164.13 127.24 163.77 128.72 C 157.96 127.66 151.88 125.75 146.04 127.68 C 141.69 128.95 137.11 131.32 134.93 135.47 C 134.84 139.06 137.19 142.39 136.56 146.07 C 136.33 149.93 133.44 152.78 131.61 155.96 C 132.52 156.77 133.52 157.43 134.49 158.16 C 133.79 163.20 131.52 168.42 126.66 170.69 C 116.62 175.84 105.10 172.28 94.40 173.80 C 94.99 174.39 95.59 174.99 96.19 175.59 C 104.98 175.18 113.35 178.46 121.89 180.00 L 49.00 180.00 C 48.98 145.67 49.04 111.34 48.97 77.01 C 49.06 73.82 48.60 70.51 49.50 67.41 C 51.88 62.45 56.18 58.75 60.53 55.56 C 71.19 47.96 83.73 43.58 96.26 40.17 M 89.22 65.23 C 84.22 65.62 79.21 67.21 75.44 70.63 C 65.65 78.40 64.52 94.10 72.08 103.78 C 76.15 107.61 80.87 111.29 86.62 111.95 C 86.98 116.94 84.75 121.48 83.34 126.13 C 80.20 134.27 76.47 142.36 75.60 151.13 C 74.60 156.46 75.98 162.27 79.84 166.18 C 83.82 170.43 87.60 175.93 93.83 176.75 C 93.88 176.19 93.98 175.07 94.03 174.52 C 85.15 173.82 82.27 164.07 80.66 156.80 C 80.92 156.38 81.44 155.53 81.70 155.11 C 83.33 157.36 84.97 159.61 86.67 161.82 C 85.89 156.19 83.40 150.91 83.28 145.17 C 82.90 134.74 85.40 124.25 90.45 115.11 C 94.18 115.39 99.58 116.63 99.05 121.57 C 99.83 120.58 100.59 119.58 101.36 118.59 C 108.11 118.23 114.98 117.50 120.92 114.00 C 122.25 113.00 123.60 112.02 124.96 111.05 C 127.49 107.87 130.25 104.74 131.77 100.91 C 135.23 92.39 134.69 82.11 129.80 74.25 C 126.77 68.91 121.60 65.23 116.10 62.75 C 107.40 58.85 97.30 60.66 89.22 65.23 M 156.95 77.91 C 155.89 79.96 154.83 82.02 153.78 84.08 C 154.15 86.34 154.43 88.62 154.67 90.90 C 157.16 89.12 159.83 87.20 162.99 86.98 C 166.05 86.98 169.04 87.71 172.04 88.23 C 173.74 90.86 174.61 93.87 175.12 96.93 C 175.36 98.83 175.62 100.74 175.92 102.64 C 176.31 102.56 177.11 102.40 177.50 102.32 C 177.20 98.96 178.11 95.86 181.12 94.04 C 184.54 96.86 183.74 101.48 182.86 105.27 C 185.49 107.53 188.72 109.29 190.45 112.42 C 192.37 116.44 197.16 117.56 201.00 118.95 C 197.59 114.57 194.31 109.99 193.28 104.40 C 192.92 104.39 192.18 104.37 191.81 104.36 C 191.64 105.94 191.43 107.52 191.21 109.09 C 186.24 104.11 186.80 96.29 182.97 90.66 C 178.65 86.36 173.39 82.60 167.33 81.35 C 167.35 80.86 167.39 79.88 167.42 79.39 C 173.61 75.71 181.36 77.67 187.26 81.01 C 187.46 81.52 187.87 82.53 188.07 83.04 C 188.33 82.18 188.58 81.31 188.84 80.44 C 179.96 72.75 167.20 73.99 156.95 77.91 M 98.70 122.95 C 99.24 125.24 99.33 127.64 100.04 129.89 C 101.64 133.19 104.71 135.52 106.14 138.92 C 107.92 142.96 109.00 147.60 107.90 151.97 C 106.43 155.75 102.82 158.07 100.81 161.52 C 103.05 161.61 105.33 161.80 107.53 161.28 C 108.97 160.21 109.85 158.56 110.96 157.18 C 113.05 157.26 115.14 157.37 117.23 157.50 C 115.83 155.68 114.44 153.86 113.03 152.06 C 112.91 147.82 114.55 143.89 116.37 140.16 C 115.52 140.78 113.83 142.02 112.98 142.64 C 112.88 142.34 112.67 141.73 112.57 141.42 C 114.93 138.46 117.29 135.14 121.11 134.01 C 125.05 131.91 129.48 133.32 133.65 133.59 C 130.47 129.99 125.05 130.34 120.68 130.65 C 115.66 131.08 112.17 135.17 109.58 139.09 C 107.52 133.32 101.52 129.46 101.17 123.08 C 100.34 123.03 99.52 122.99 98.70 122.95 M 225.47 130.28 C 227.68 131.34 229.99 132.17 232.36 132.82 C 230.58 130.83 228.11 130.00 225.47 130.28 M 244.47 146.17 C 243.69 150.45 243.78 154.97 241.83 158.96 C 239.93 162.93 237.93 166.86 236.31 170.97 C 238.23 171.49 240.79 171.00 242.11 172.85 C 243.97 174.85 245.74 176.95 247.86 178.70 C 246.97 175.36 244.90 172.43 244.25 169.03 C 243.59 161.41 248.15 153.54 244.47 146.17 Z" />
<path fill="#b3fe01" opacity="1.00" d=" M 99.91 71.48 C 103.42 70.10 107.28 70.81 110.84 71.65 C 120.37 74.16 126.27 85.47 123.29 94.76 C 122.66 94.09 122.05 93.42 121.46 92.73 C 122.32 88.01 121.49 83.27 119.12 79.12 C 116.78 76.98 114.36 74.78 111.30 73.74 C 103.78 70.73 94.01 74.30 90.81 81.89 C 88.73 86.14 88.81 91.31 90.60 95.64 C 93.96 103.52 104.01 107.75 111.93 104.39 C 115.84 102.55 119.84 99.52 120.53 94.96 C 121.15 94.90 122.39 94.79 123.00 94.73 C 120.75 105.29 107.34 111.44 97.84 106.46 C 89.96 103.04 84.92 93.50 87.41 85.12 C 88.40 78.57 93.94 73.66 99.91 71.48 Z" />
<path fill="#b3fe01" opacity="1.00" d=" M 98.27 89.05 C 98.23 85.18 102.14 81.69 106.01 82.34 C 109.00 82.34 110.78 85.08 112.70 86.95 C 112.35 89.25 111.95 91.54 111.55 93.84 C 111.05 93.76 110.03 93.60 109.53 93.52 C 110.94 90.31 110.77 86.89 108.25 84.33 C 105.76 84.51 102.59 83.69 100.92 86.13 C 100.11 88.32 99.61 91.49 101.77 93.09 C 103.81 94.75 106.69 94.40 109.10 95.03 C 104.98 99.00 97.62 94.39 98.27 89.05 Z" />
<path fill="#b3fe01" opacity="1.00" d=" M 144.26 137.32 C 150.20 133.08 157.44 129.31 164.99 130.44 C 166.40 130.66 168.20 130.55 169.05 131.96 C 166.22 134.73 162.94 137.08 160.69 140.40 C 156.92 145.92 151.75 151.40 144.89 152.64 C 142.29 153.23 139.57 151.61 138.72 149.12 C 136.48 144.42 141.48 140.53 144.26 137.32 Z" />
<path fill="#b3fe01" opacity="1.00" d=" M 180.56 130.29 C 186.92 130.06 193.55 129.86 199.55 132.34 C 204.71 134.44 208.78 140.29 207.05 145.96 C 206.01 148.59 202.74 147.32 200.74 146.74 C 200.10 150.86 200.13 155.36 197.46 158.83 C 196.09 158.67 194.72 158.52 193.36 158.36 C 191.94 159.97 190.46 161.53 189.01 163.12 C 187.94 163.79 186.87 164.47 185.77 165.11 C 178.49 164.85 171.27 162.71 165.02 158.98 C 161.83 157.20 159.37 153.80 159.56 150.03 C 159.50 144.10 164.33 139.97 167.86 135.82 C 171.04 132.12 175.95 131.00 180.56 130.29 Z" />
<path fill="#b3fe01" opacity="1.00" d=" M 141.50 156.75 C 150.81 154.54 161.16 158.37 166.79 166.13 C 168.54 169.47 172.65 168.89 175.62 170.34 C 178.75 171.67 181.50 174.27 185.09 174.25 C 187.61 173.95 189.98 172.94 192.40 172.22 C 190.55 175.12 188.49 177.93 185.71 180.00 L 161.68 180.00 C 162.93 178.26 164.09 176.48 165.26 174.69 C 163.34 175.44 161.42 176.23 159.51 177.00 C 160.21 178.00 160.92 179.00 161.63 180.00 L 136.71 180.00 C 138.03 177.14 139.45 173.53 143.00 172.97 C 145.58 173.07 147.99 174.08 150.41 174.87 C 150.00 172.89 149.60 170.90 149.23 168.92 C 147.68 169.79 146.14 170.67 144.61 171.57 C 140.16 170.17 138.43 165.82 137.27 161.72 C 138.59 160.01 139.60 157.89 141.50 156.75 Z" />
<path fill="#b3fe01" opacity="1.00" d=" M 122.09 180.00 C 126.36 178.58 130.65 177.19 135.05 176.23 C 135.28 177.49 135.53 178.74 135.80 180.00 L 122.09 180.00 Z" />
</g>
</svg>
