<?xml version="1.0" encoding="UTF-8" ?>
<!DOCTYPE svg PUBLIC "-//W3C//DTD SVG 1.1//EN" "http://www.w3.org/Graphics/SVG/1.1/DTD/svg11.dtd">
<svg width="325pt" height="180pt" viewBox="0 0 325 180" version="1.1" xmlns="http://www.w3.org/2000/svg">
<g id="#313131ff">
<path fill="#313131" opacity="1.00" d=" M 0.00 0.00 L 49.00 0.00 C 49.00 60.00 49.00 120.00 49.01 180.00 L 0.00 180.00 L 0.00 0.00 Z" />
<path fill="#313131" opacity="1.00" d=" M 264.00 0.00 L 325.00 0.00 L 325.00 180.00 L 264.00 180.00 C 264.00 120.00 264.00 60.00 264.00 0.00 Z" />
<path fill="#313131" opacity="1.00" d=" M 89.81 64.89 C 95.99 61.74 103.05 59.76 110.01 60.91 C 112.07 61.45 114.04 62.29 116.13 62.74 C 122.62 65.58 128.39 70.40 131.28 77.00 C 133.74 81.28 133.50 86.31 134.18 91.04 C 133.23 101.56 127.02 112.08 116.84 115.91 C 112.12 118.19 106.84 118.09 101.74 118.41 C 100.80 119.49 99.86 120.57 98.91 121.64 C 99.80 116.66 94.20 115.37 90.50 115.12 C 84.98 124.89 82.49 136.38 83.48 147.55 C 83.79 152.47 86.39 156.91 86.48 161.85 C 84.91 159.42 83.26 157.04 81.27 154.94 C 80.63 160.48 82.96 166.20 86.32 170.54 C 88.36 173.53 92.42 173.72 94.83 176.27 C 93.83 176.25 91.85 176.21 90.85 176.19 C 85.95 173.62 82.51 169.11 78.91 165.05 C 76.47 162.29 75.37 158.58 75.29 154.94 C 75.58 144.83 79.60 135.40 83.36 126.18 C 84.61 121.43 87.23 116.91 86.52 111.83 C 82.82 111.58 79.49 109.85 76.62 107.60 C 63.98 99.60 64.14 78.77 76.06 70.15 C 79.83 66.67 85.01 65.92 89.81 64.89 M 91.20 77.22 C 87.99 80.67 87.08 85.47 86.74 90.02 C 86.94 100.48 97.51 110.19 108.08 107.83 C 114.68 107.22 120.14 102.33 122.80 96.45 C 122.16 95.73 121.53 95.01 120.89 94.30 C 119.29 101.94 110.52 106.91 103.08 105.22 C 97.87 104.44 93.22 100.93 90.87 96.24 C 88.32 90.87 88.81 84.23 92.22 79.34 C 96.95 72.65 106.96 70.67 113.95 74.98 C 120.32 78.20 122.94 85.95 121.45 92.68 C 122.04 93.40 122.63 94.10 123.24 94.79 C 125.58 87.85 122.73 79.47 117.05 74.91 C 113.52 71.68 108.56 70.92 103.97 70.69 C 98.99 70.87 94.64 73.82 91.20 77.22 M 99.27 92.89 C 100.84 96.17 106.59 98.20 108.86 94.85 C 105.73 94.68 102.45 94.29 100.30 91.74 C 100.36 89.98 100.41 88.22 100.44 86.47 C 102.41 84.09 105.40 84.16 108.21 84.42 C 110.86 86.79 111.06 90.39 109.41 93.44 C 109.93 93.55 110.96 93.79 111.48 93.91 C 112.02 91.62 112.42 89.29 112.63 86.95 C 110.77 85.03 109.01 82.30 106.01 82.34 C 100.57 81.36 96.00 88.38 99.27 92.89 Z" />
<path fill="#313131" opacity="1.00" d=" M 156.91 77.95 C 167.09 73.99 180.02 72.65 188.76 80.50 C 188.69 81.08 188.53 82.25 188.45 82.83 C 185.39 78.57 179.80 77.88 174.98 77.40 C 172.28 77.03 169.75 78.19 167.46 79.46 C 167.42 79.95 167.34 80.94 167.30 81.43 C 172.59 82.24 177.06 85.51 181.10 88.83 C 187.43 93.78 185.24 103.80 191.31 108.93 C 191.48 107.42 191.64 105.90 191.78 104.39 C 192.16 104.37 192.91 104.35 193.28 104.33 C 194.31 109.84 197.30 114.55 201.04 118.62 C 198.16 118.69 195.79 116.84 193.31 115.66 C 190.64 114.63 190.59 111.20 188.38 109.65 C 186.50 108.13 184.53 106.70 182.65 105.18 C 183.83 101.57 184.71 96.63 180.98 94.18 C 179.94 95.15 178.86 96.07 177.93 97.15 C 177.53 98.87 177.63 100.65 177.53 102.41 C 177.13 102.45 176.33 102.53 175.93 102.57 C 175.05 97.70 175.03 92.32 171.90 88.22 C 166.00 86.51 159.15 86.23 154.61 91.08 C 154.57 88.71 154.29 86.34 153.73 84.04 C 154.84 82.03 155.91 80.01 156.91 77.95 Z" />
<path fill="#313131" opacity="1.00" d=" M 155.79 96.30 C 158.43 95.70 161.13 94.68 163.87 95.13 C 165.22 96.05 166.69 97.41 166.66 99.18 C 164.96 101.47 162.24 102.57 159.85 103.95 C 161.21 105.29 162.59 106.63 163.98 107.95 C 163.83 112.61 162.72 117.14 161.10 121.49 C 164.07 120.09 166.78 117.97 170.17 117.66 C 171.96 115.36 173.70 113.02 175.45 110.69 C 175.41 113.46 175.43 116.24 175.43 119.01 C 175.58 122.68 173.59 125.92 172.01 129.09 C 176.66 128.72 181.33 128.64 185.97 128.12 C 188.50 127.99 187.85 124.59 188.71 122.91 C 193.31 127.46 198.61 131.12 204.64 133.50 C 205.75 131.47 206.91 129.45 208.15 127.49 C 207.18 125.66 206.17 123.85 205.21 122.01 C 208.35 123.64 210.60 126.62 213.91 127.94 C 217.62 129.05 221.63 128.14 225.31 129.43 C 224.61 130.08 220.41 130.88 222.14 132.63 C 224.11 135.06 226.91 136.62 228.94 138.97 C 229.94 140.46 230.22 142.29 230.76 143.97 C 225.90 139.49 221.36 133.65 214.35 132.70 C 211.40 132.58 207.67 135.29 208.45 138.54 C 208.89 143.22 210.17 147.85 212.45 151.99 C 213.90 152.54 216.03 152.49 216.64 154.26 C 219.68 159.92 222.26 166.08 227.07 170.54 C 229.24 170.68 230.33 168.44 231.77 167.22 C 231.22 168.94 230.69 170.66 230.21 172.41 C 228.71 172.70 227.22 173.01 225.73 173.33 C 222.94 171.91 220.42 169.98 217.57 168.67 C 214.23 168.53 211.10 167.59 208.11 166.15 C 204.06 169.64 205.52 176.27 201.48 180.00 L 185.61 180.00 C 188.46 177.98 190.75 175.27 192.23 172.10 C 189.88 172.89 187.60 174.10 185.10 174.28 C 181.73 174.33 179.09 172.04 176.26 170.58 C 173.91 169.23 171.09 169.29 168.60 168.37 C 164.63 162.76 158.96 157.81 151.97 156.70 C 148.52 156.23 144.89 155.71 141.49 156.74 C 139.51 157.79 138.63 160.04 137.37 161.77 C 138.24 164.93 139.54 167.95 141.61 170.52 C 142.72 170.74 143.84 170.97 144.96 171.19 C 146.43 170.43 147.91 169.66 149.39 168.91 C 149.57 170.96 149.76 173.01 149.93 175.06 C 147.22 174.12 144.24 171.83 141.37 173.54 C 138.84 174.77 137.73 177.48 136.93 180.00 L 135.34 180.00 C 135.36 178.75 135.38 177.49 135.40 176.24 C 131.09 177.09 126.78 178.12 122.79 180.00 L 121.21 180.00 C 119.50 179.34 117.75 178.79 115.93 178.55 C 109.36 177.65 103.03 174.87 96.28 175.60 C 95.62 175.00 94.96 174.41 94.31 173.81 C 105.03 172.24 116.56 175.86 126.65 170.71 C 131.62 168.36 133.94 162.97 134.55 157.78 C 133.43 157.22 132.32 156.66 131.20 156.10 C 134.79 152.35 137.18 147.53 136.73 142.22 C 135.24 139.70 134.61 136.80 135.26 133.92 C 138.56 131.41 141.83 128.60 146.00 127.69 C 151.90 125.72 158.03 127.72 163.91 128.70 C 164.24 127.22 164.56 125.75 164.86 124.27 C 163.33 124.56 161.80 124.86 160.28 125.16 C 159.85 122.80 159.27 120.46 159.23 118.05 C 159.84 115.88 161.08 113.94 161.63 111.75 C 161.08 108.32 157.46 108.11 154.72 107.75 C 153.96 106.60 153.20 105.44 152.46 104.27 C 154.06 101.85 155.46 99.24 155.79 96.30 M 157.19 130.84 C 149.22 133.16 141.28 137.88 138.00 145.88 C 137.98 149.18 140.32 153.04 144.01 152.72 C 151.25 151.94 156.79 146.14 160.68 140.44 C 162.19 138.39 163.79 136.38 165.87 134.88 C 166.98 133.83 168.74 133.01 168.87 131.30 C 165.13 130.10 161.02 129.88 157.19 130.84 M 180.55 130.32 C 177.75 130.77 174.87 131.10 172.33 132.46 C 168.04 134.62 165.35 138.78 162.32 142.33 C 158.60 146.67 158.44 154.13 163.24 157.75 C 169.65 162.41 177.59 164.43 185.36 165.31 C 188.55 163.73 191.12 161.22 193.26 158.40 C 194.57 158.51 195.90 158.62 197.22 158.73 C 197.91 157.92 198.61 157.11 199.31 156.31 C 199.82 153.06 200.31 149.80 200.76 146.54 C 202.54 147.62 204.59 147.56 206.60 147.47 C 207.21 145.01 207.88 142.38 206.89 139.92 C 206.13 136.61 202.64 135.13 201.31 132.17 C 200.95 132.32 200.22 132.63 199.85 132.78 C 194.06 129.59 186.97 130.12 180.55 130.32 Z" />
<path fill="#313131" opacity="1.00" d=" M 98.50 122.88 C 99.51 122.86 100.52 122.83 101.53 122.79 C 100.45 125.40 102.48 127.98 103.90 130.04 C 106.15 132.78 108.05 135.79 109.39 139.09 C 111.56 136.48 113.50 133.46 116.60 131.86 C 121.57 129.89 127.28 130.00 132.22 132.00 L 133.39 133.65 C 130.50 133.35 127.62 132.92 124.72 132.66 C 119.58 134.21 113.84 137.20 112.59 142.88 C 113.60 142.13 115.62 140.64 116.64 139.90 C 114.96 143.74 112.34 147.64 113.26 152.07 C 114.24 154.15 115.96 155.75 117.39 157.52 C 115.18 157.37 112.97 157.26 110.75 157.18 C 109.84 158.56 108.93 159.94 108.02 161.33 C 105.81 161.53 103.60 161.63 101.38 161.64 C 101.42 161.13 101.51 160.10 101.55 159.58 C 105.21 156.92 108.76 152.90 108.36 148.06 C 108.20 145.17 107.59 142.29 106.45 139.62 C 104.91 135.61 101.42 132.83 99.45 129.06 C 99.77 126.93 99.33 124.85 98.50 122.88 Z" />
<path fill="#313131" opacity="1.00" d=" M 224.77 130.52 C 227.42 130.13 230.82 130.13 232.10 132.98 C 231.16 132.58 230.23 132.17 229.31 131.75 C 227.78 131.37 226.26 130.97 224.77 130.52 Z" />
<path fill="#313131" opacity="1.00" d=" M 244.58 145.93 C 247.34 152.06 245.18 158.70 244.27 164.95 C 243.23 170.22 246.61 174.69 248.51 179.28 C 245.17 177.70 243.75 174.01 241.10 171.59 C 239.53 171.45 237.95 171.30 236.38 171.16 C 237.78 166.52 240.39 162.39 242.26 157.94 C 243.93 154.15 243.63 149.90 244.58 145.93 Z" />
<path fill="#313131" opacity="1.00" d=" M 159.30 176.96 C 161.38 176.23 163.43 175.44 165.48 174.62 C 164.24 176.28 162.98 177.99 162.38 180.00 L 161.24 180.00 L 161.10 179.47 C 160.65 178.84 159.75 177.59 159.30 176.96 Z" />
</g>
<g id="#b3fe01ff">
<path fill="#b3fe01" opacity="1.00" d=" M 49.00 0.00 L 264.00 0.00 C 264.00 60.00 264.00 120.00 264.00 180.00 L 201.48 180.00 C 205.52 176.27 204.06 169.64 208.11 166.15 C 211.10 167.59 214.23 168.53 217.57 168.67 C 220.42 169.98 222.94 171.91 225.73 173.33 C 227.22 173.01 228.71 172.70 230.21 172.41 C 230.69 170.66 231.22 168.94 231.77 167.22 C 230.33 168.44 229.24 170.68 227.07 170.54 C 222.26 166.08 219.68 159.92 216.64 154.26 C 216.03 152.49 213.90 152.54 212.45 151.99 C 210.17 147.85 208.89 143.22 208.45 138.54 C 207.67 135.29 211.40 132.58 214.35 132.70 C 221.36 133.65 225.90 139.49 230.76 143.97 C 230.22 142.29 229.94 140.46 228.94 138.97 C 226.91 136.62 224.11 135.06 222.14 132.63 C 220.41 130.88 224.61 130.08 225.31 129.43 C 221.63 128.14 217.62 129.05 213.91 127.94 C 210.60 126.62 208.35 123.64 205.21 122.01 C 206.17 123.85 207.18 125.66 208.15 127.49 C 206.91 129.45 205.75 131.47 204.64 133.50 C 198.61 131.12 193.31 127.46 188.71 122.91 C 187.85 124.59 188.50 127.99 185.97 128.12 C 181.33 128.64 176.66 128.72 172.01 129.09 C 173.59 125.92 175.58 122.68 175.43 119.01 C 175.43 116.24 175.41 113.46 175.45 110.69 C 173.70 113.02 171.96 115.36 170.17 117.66 C 166.78 117.97 164.07 120.09 161.10 121.49 C 162.72 117.14 163.83 112.61 163.98 107.95 C 162.59 106.63 161.21 105.29 159.85 103.95 C 162.24 102.57 164.96 101.47 166.66 99.18 C 166.69 97.41 165.22 96.05 163.87 95.13 C 161.13 94.68 158.43 95.70 155.79 96.30 C 155.46 99.24 154.06 101.85 152.46 104.27 C 153.20 105.44 153.96 106.60 154.72 107.75 C 157.46 108.11 161.08 108.32 161.63 111.75 C 161.08 113.94 159.84 115.88 159.23 118.05 C 159.27 120.46 159.85 122.80 160.28 125.16 C 161.80 124.86 163.33 124.56 164.86 124.27 C 164.56 125.75 164.24 127.22 163.91 128.70 C 158.03 127.72 151.90 125.72 146.00 127.69 C 141.83 128.60 138.56 131.41 135.26 133.92 C 134.61 136.80 135.24 139.70 136.73 142.22 C 137.18 147.53 134.79 152.35 131.20 156.10 C 132.32 156.66 133.43 157.22 134.55 157.78 C 133.94 162.97 131.62 168.36 126.65 170.71 C 116.56 175.86 105.03 172.24 94.31 173.81 C 94.96 174.41 95.62 175.00 96.28 175.60 C 103.03 174.87 109.36 177.65 115.93 178.55 C 117.75 178.79 119.50 179.34 121.21 180.00 L 49.01 180.00 C 49.00 120.00 49.00 60.00 49.00 0.00 M 89.81 64.89 C 85.01 65.92 79.83 66.67 76.06 70.15 C 64.14 78.77 63.98 99.60 76.62 107.60 C 79.49 109.85 82.82 111.58 86.52 111.83 C 87.23 116.91 84.61 121.43 83.36 126.18 C 79.60 135.40 75.58 144.83 75.29 154.94 C 75.37 158.58 76.47 162.29 78.91 165.05 C 82.51 169.11 85.95 173.62 90.85 176.19 C 91.85 176.21 93.83 176.25 94.83 176.27 C 92.42 173.72 88.36 173.53 86.32 170.54 C 82.96 166.20 80.63 160.48 81.27 154.94 C 83.26 157.04 84.91 159.42 86.48 161.85 C 86.39 156.91 83.79 152.47 83.48 147.55 C 82.49 136.38 84.98 124.89 90.50 115.12 C 94.20 115.37 99.80 116.66 98.91 121.64 C 99.86 120.57 100.80 119.49 101.74 118.41 C 106.84 118.09 112.12 118.19 116.84 115.91 C 127.02 112.08 133.23 101.56 134.18 91.04 C 133.50 86.31 133.74 81.28 131.28 77.00 C 128.39 70.40 122.62 65.58 116.13 62.74 C 114.04 62.29 112.07 61.45 110.01 60.91 C 103.05 59.76 95.99 61.74 89.81 64.89 M 156.91 77.95 C 155.91 80.01 154.84 82.03 153.73 84.04 C 154.29 86.34 154.57 88.71 154.61 91.08 C 159.15 86.23 166.00 86.51 171.90 88.22 C 175.03 92.32 175.05 97.70 175.93 102.57 C 176.33 102.53 177.13 102.45 177.53 102.41 C 177.63 100.65 177.53 98.87 177.93 97.15 C 178.86 96.07 179.94 95.15 180.98 94.18 C 184.71 96.63 183.83 101.57 182.65 105.18 C 184.53 106.70 186.50 108.13 188.38 109.65 C 190.59 111.20 190.64 114.63 193.31 115.66 C 195.79 116.84 198.16 118.69 201.04 118.62 C 197.30 114.55 194.31 109.84 193.28 104.33 C 192.91 104.35 192.16 104.37 191.78 104.39 C 191.64 105.90 191.48 107.42 191.31 108.93 C 185.24 103.80 187.43 93.78 181.10 88.83 C 177.06 85.51 172.59 82.24 167.30 81.43 C 167.34 80.94 167.42 79.95 167.46 79.46 C 169.75 78.19 172.28 77.03 174.98 77.40 C 179.80 77.88 185.39 78.57 188.45 82.83 C 188.53 82.25 188.69 81.08 188.76 80.50 C 180.02 72.65 167.09 73.99 156.91 77.95 M 98.50 122.88 C 99.33 124.85 99.77 126.93 99.45 129.06 C 101.42 132.83 104.91 135.61 106.45 139.62 C 107.59 142.29 108.20 145.17 108.36 148.06 C 108.76 152.90 105.21 156.92 101.55 159.58 C 101.51 160.10 101.42 161.13 101.38 161.64 C 103.60 161.63 105.81 161.53 108.02 161.33 C 108.93 159.94 109.84 158.56 110.75 157.18 C 112.97 157.26 115.18 157.37 117.39 157.52 C 115.96 155.75 114.24 154.15 113.26 152.07 C 112.34 147.64 114.96 143.74 116.64 139.90 C 115.62 140.64 113.60 142.13 112.59 142.88 C 113.84 137.20 119.58 134.21 124.72 132.66 C 127.62 132.92 130.50 133.35 133.39 133.65 L 132.22 132.00 C 127.28 130.00 121.57 129.89 116.60 131.86 C 113.50 133.46 111.56 136.48 109.39 139.09 C 108.05 135.79 106.15 132.78 103.90 130.04 C 102.48 127.98 100.45 125.40 101.53 122.79 C 100.52 122.83 99.51 122.86 98.50 122.88 M 224.77 130.52 C 226.26 130.97 227.78 131.37 229.31 131.75 C 230.23 132.17 231.16 132.58 232.10 132.98 C 230.82 130.13 227.42 130.13 224.77 130.52 M 244.58 145.93 C 243.63 149.90 243.93 154.15 242.26 157.94 C 240.39 162.39 237.78 166.52 236.38 171.16 C 237.95 171.30 239.53 171.45 241.10 171.59 C 243.75 174.01 245.17 177.70 248.51 179.28 C 246.61 174.69 243.23 170.22 244.27 164.95 C 245.18 158.70 247.34 152.06 244.58 145.93 Z" />
<path fill="#b3fe01" opacity="1.00" d=" M 91.20 77.22 C 94.64 73.82 98.99 70.87 103.97 70.69 C 108.56 70.92 113.52 71.68 117.05 74.91 C 122.73 79.47 125.58 87.85 123.24 94.79 C 122.63 94.10 122.04 93.40 121.45 92.68 C 122.94 85.95 120.32 78.20 113.95 74.98 C 106.96 70.67 96.95 72.65 92.22 79.34 C 88.81 84.23 88.32 90.87 90.87 96.24 C 93.22 100.93 97.87 104.44 103.08 105.22 C 110.52 106.91 119.29 101.94 120.89 94.30 C 121.53 95.01 122.16 95.73 122.80 96.45 C 120.14 102.33 114.68 107.22 108.08 107.83 C 97.51 110.19 86.94 100.48 86.74 90.02 C 87.08 85.47 87.99 80.67 91.20 77.22 Z" />
<path fill="#b3fe01" opacity="1.00" d=" M 99.27 92.89 C 96.00 88.38 100.57 81.36 106.01 82.34 C 109.01 82.30 110.77 85.03 112.63 86.95 C 112.42 89.29 112.02 91.62 111.48 93.91 C 110.96 93.79 109.93 93.55 109.41 93.44 C 111.06 90.39 110.86 86.79 108.21 84.42 C 105.40 84.16 102.41 84.09 100.44 86.47 C 100.41 88.22 100.36 89.98 100.30 91.74 C 102.45 94.29 105.73 94.68 108.86 94.85 C 106.59 98.20 100.84 96.17 99.27 92.89 Z" />
<path fill="#b3fe01" opacity="1.00" d=" M 157.19 130.84 C 161.02 129.88 165.13 130.10 168.87 131.30 C 168.74 133.01 166.98 133.83 165.87 134.88 C 163.79 136.38 162.19 138.39 160.68 140.44 C 156.79 146.14 151.25 151.94 144.01 152.72 C 140.32 153.04 137.98 149.18 138.00 145.88 C 141.28 137.88 149.22 133.16 157.19 130.84 Z" />
<path fill="#b3fe01" opacity="1.00" d=" M 180.55 130.32 C 186.97 130.12 194.06 129.59 199.85 132.78 C 200.22 132.63 200.95 132.32 201.31 132.17 C 202.64 135.13 206.13 136.61 206.89 139.92 C 207.88 142.38 207.21 145.01 206.60 147.47 C 204.59 147.56 202.54 147.62 200.76 146.54 C 200.31 149.80 199.82 153.06 199.31 156.31 C 198.61 157.11 197.91 157.92 197.22 158.73 C 195.90 158.62 194.57 158.51 193.26 158.40 C 191.12 161.22 188.55 163.73 185.36 165.31 C 177.59 164.43 169.65 162.41 163.24 157.75 C 158.44 154.13 158.60 146.67 162.32 142.33 C 165.35 138.78 168.04 134.62 172.33 132.46 C 174.87 131.10 177.75 130.77 180.55 130.32 Z" />
<path fill="#b3fe01" opacity="1.00" d=" M 141.49 156.74 C 144.89 155.71 148.52 156.23 151.97 156.70 C 158.96 157.81 164.63 162.76 168.60 168.37 C 171.09 169.29 173.91 169.23 176.26 170.58 C 179.09 172.04 181.73 174.33 185.10 174.28 C 187.60 174.10 189.88 172.89 192.23 172.10 C 190.75 175.27 188.46 177.98 185.61 180.00 L 162.38 180.00 C 162.98 177.99 164.24 176.28 165.48 174.62 C 163.43 175.44 161.38 176.23 159.30 176.96 C 159.75 177.59 160.65 178.84 161.10 179.47 L 161.24 180.00 L 136.93 180.00 C 137.73 177.48 138.84 174.77 141.37 173.54 C 144.24 171.83 147.22 174.12 149.93 175.06 C 149.76 173.01 149.57 170.96 149.39 168.91 C 147.91 169.66 146.43 170.43 144.96 171.19 C 143.84 170.97 142.72 170.74 141.61 170.52 C 139.54 167.95 138.24 164.93 137.37 161.77 C 138.63 160.04 139.51 157.79 141.49 156.74 Z" />
<path fill="#b3fe01" opacity="1.00" d=" M 122.79 180.00 C 126.78 178.12 131.09 177.09 135.40 176.24 C 135.38 177.49 135.36 178.75 135.34 180.00 L 122.79 180.00 Z" />
</g>
</svg>
